<svg width="33" height="34" viewBox="0 0 33 34" fill="none" xmlns="http://www.w3.org/2000/svg">
<path d="M12.7407 25.1594L9.71908 21.5333L5.47949 26.9571H22.4378L16.9803 19.7202L12.7407 25.1594Z" fill="#0057FF"/>
<path opacity="0.3" d="M22.4373 26.9571H5.479L9.71859 21.5332L12.7403 25.1594L16.9798 19.7202L22.4373 26.9571ZM23.2082 10.0555H18.5832V8.51904H3.1665V30.0301H24.7498V14.6651H23.2082V10.0555Z" fill="#0057FF"/>
<path d="M27.8335 5.44606V0.836548H24.7502V5.44606H20.1252V8.51907H24.7502V13.1132H27.8335V8.51907H32.4585V5.44606H27.8335ZM24.7502 30.0301H3.16683V8.51907H18.5835V5.44606H3.16683C1.471 5.44606 0.0834961 6.82891 0.0834961 8.51907V30.0301C0.0834961 31.7203 1.471 33.1031 3.16683 33.1031H24.7502C26.446 33.1031 27.8335 31.7203 27.8335 30.0301V14.6651H24.7502V30.0301Z" fill="#0057FF"/>
</svg>
