<svg width="20" height="20" viewBox="0 0 20 20" fill="none" xmlns="http://www.w3.org/2000/svg">
<path d="M16.4838 14.7672C15.1169 15.0953 13.69 15.0794 12.3308 14.7209C10.9715 14.3623 9.72247 13.6723 8.69539 12.7126C7.66832 11.7529 6.89531 10.5535 6.44558 9.22174C5.99586 7.89 5.88346 6.46754 6.11846 5.08171C6.08272 5.11622 6.04498 5.14861 6.00545 5.17871C5.72544 5.39169 5.37543 5.47069 4.6754 5.62868L4.04038 5.77267C1.58029 6.32964 0.350248 6.60762 0.0572371 7.54857C-0.234773 8.48852 0.603257 9.46946 2.28032 11.4303L2.71433 11.9373C3.19035 12.4943 3.42936 12.7733 3.53636 13.1173C3.64337 13.4622 3.60736 13.8342 3.53536 14.5772L3.46936 15.2541C3.21635 17.871 3.08935 19.1789 3.85537 19.7599C4.6214 20.3418 5.77344 19.8119 8.07553 18.7509L8.67255 18.4769C9.32657 18.175 9.65358 18.025 10.0006 18.025C10.3476 18.025 10.6746 18.175 11.3296 18.4769L11.9247 18.7509C14.2277 19.8109 15.3798 20.3408 16.1448 19.7609C16.9118 19.1789 16.7848 17.871 16.5318 15.2541L16.4838 14.7672Z" fill="#0057FF"/>
<path opacity="0.5" d="M7.15323 3.40779L6.82522 3.99576C6.4652 4.64172 6.2852 4.9647 6.00519 5.17769C6.04519 5.14769 6.08219 5.11569 6.11819 5.0807C5.88314 6.46662 5.99553 7.88921 6.4453 9.22104C6.89507 10.5529 7.66818 11.7524 8.69539 12.7121C9.72259 13.6718 10.9718 14.3618 12.3312 14.7203C13.6906 15.0788 15.1176 15.0945 16.4846 14.7661L16.4646 14.5762C16.3936 13.8332 16.3576 13.4612 16.4646 13.1162C16.5716 12.7723 16.8096 12.4933 17.2866 11.9363L17.7206 11.4293C19.3977 9.46945 20.2357 8.4885 19.9427 7.54756C19.6507 6.60661 18.4206 6.32762 15.9605 5.77166L15.3245 5.62766C14.6255 5.46967 14.2755 5.39068 13.9945 5.17769C13.7145 4.9647 13.5345 4.64172 13.1744 3.99576L12.8474 3.40779C11.5804 1.13592 10.9474 -1.52588e-05 10.0003 -1.52588e-05C9.0533 -1.52588e-05 8.42027 1.13592 7.15323 3.40779Z" fill="#0057FF"/>
</svg>
